<svg width="20" height="21" viewBox="0 0 20 21" fill="none" xmlns="http://www.w3.org/2000/svg">
<path d="M14.5 5.36362C14.5 7.84997 12.4864 9.86362 10 9.86362C7.51364 9.86362 5.5 7.84997 5.5 5.36362C5.5 2.87726 7.51364 0.863617 10 0.863617C12.4864 0.863617 14.5 2.87726 14.5 5.36362ZM0.5 17.8636C0.5 17.216 0.820443 16.6117 1.43228 16.0471C2.04751 15.4792 2.92348 14.9858 3.93437 14.5809C5.95696 13.7706 8.39375 13.3636 10 13.3636C11.6062 13.3636 14.043 13.7706 16.0656 14.5809C17.0765 14.9858 17.9525 15.4792 18.5677 16.0471C19.1796 16.6117 19.5 17.216 19.5 17.8636V19.8636H0.5V17.8636Z" stroke="black"/>
</svg>
