<svg width="93" height="112" viewBox="0 0 93 112" fill="none" xmlns="http://www.w3.org/2000/svg">
<circle cx="46.5" cy="40" r="39.5" stroke="#A7A6A6"/>
<line x1="46.1211" y1="31" x2="46.1211" y2="50" stroke="#A7A6A6"/>
<line x1="55.5" y1="40.6206" x2="36.5" y2="40.6206" stroke="#A7A6A6"/>
<path d="M4.248 108.12C3.4 108.12 2.688 107.928 2.112 107.544C1.544 107.152 1.1 106.556 0.78 105.756L1.668 105.276C1.916 105.972 2.256 106.48 2.688 106.8C3.12 107.12 3.636 107.28 4.236 107.28C4.948 107.28 5.476 107.112 5.82 106.776C6.164 106.432 6.336 106.02 6.336 105.54C6.336 104.996 6.16 104.568 5.808 104.256C5.456 103.936 4.912 103.776 4.176 103.776H3.156V102.972H4.092C4.46 102.972 4.772 102.924 5.028 102.828C5.284 102.732 5.488 102.608 5.64 102.456C5.8 102.296 5.916 102.12 5.988 101.928C6.06 101.728 6.096 101.528 6.096 101.328C6.096 100.792 5.92 100.392 5.568 100.128C5.224 99.856 4.788 99.72 4.26 99.72C3.676 99.72 3.18 99.884 2.772 100.212C2.364 100.54 2.06 101.016 1.86 101.64L0.912 101.268C1.184 100.5 1.608 99.912 2.184 99.504C2.76 99.088 3.452 98.88 4.26 98.88C5.164 98.88 5.868 99.096 6.372 99.528C6.876 99.96 7.128 100.536 7.128 101.256C7.128 101.728 7.008 102.144 6.768 102.504C6.528 102.856 6.156 103.136 5.652 103.344C6.204 103.512 6.628 103.776 6.924 104.136C7.22 104.488 7.368 104.952 7.368 105.528C7.368 105.888 7.3 106.228 7.164 106.548C7.028 106.86 6.828 107.132 6.564 107.364C6.308 107.596 5.984 107.78 5.592 107.916C5.2 108.052 4.752 108.12 4.248 108.12ZM9.86019 103.956L9.03219 103.692C9.16819 103.084 9.45219 102.632 9.88419 102.336C10.3162 102.032 10.8682 101.88 11.5402 101.88C12.3082 101.88 12.8762 102.04 13.2442 102.36C13.6122 102.672 13.7962 103.152 13.7962 103.8V107.256H14.7922V108H12.8122L12.8842 107.244V106.44L12.0802 107.64C11.8802 107.8 11.6482 107.92 11.3842 108C11.1282 108.072 10.8642 108.108 10.5922 108.108C10.1202 108.108 9.72819 107.964 9.41619 107.676C9.10419 107.388 8.94819 106.984 8.94819 106.464C8.94819 105.96 9.09619 105.6 9.39219 105.384C9.69619 105.16 10.0522 104.992 10.4602 104.88C10.8762 104.768 11.3082 104.668 11.7562 104.58C12.2122 104.492 12.5882 104.328 12.8842 104.088V103.836C12.8842 103.444 12.7682 103.136 12.5362 102.912C12.3122 102.68 11.9602 102.564 11.4802 102.564C10.9762 102.564 10.6082 102.68 10.3762 102.912C10.1442 103.136 9.97219 103.484 9.86019 103.956ZM9.92019 106.332C9.92019 106.676 10.0162 106.944 10.2082 107.136C10.4082 107.32 10.6562 107.412 10.9522 107.412C11.3442 107.412 11.7002 107.296 12.0202 107.064C12.3482 106.832 12.6362 106.448 12.8842 105.912V104.256C12.6682 104.512 12.3922 104.7 12.0562 104.82C11.7202 104.932 11.3922 105.044 11.0722 105.156C10.7602 105.26 10.4882 105.396 10.2562 105.564C10.0322 105.732 9.92019 105.988 9.92019 106.332ZM17.3657 108H16.4537V102H20.2697V102.648H17.3657V108ZM24.966 108.12C24.406 108.12 23.922 107.948 23.514 107.604C23.114 107.252 22.85 106.752 22.722 106.104V111H21.81V102H22.722V103.872C22.858 103.224 23.122 102.732 23.514 102.396C23.914 102.052 24.39 101.88 24.942 101.88C25.262 101.88 25.574 101.944 25.878 102.072C26.182 102.2 26.45 102.392 26.682 102.648C26.914 102.896 27.098 103.216 27.234 103.608C27.378 104 27.45 104.46 27.45 104.988C27.45 105.516 27.378 105.976 27.234 106.368C27.098 106.76 26.914 107.088 26.682 107.352C26.458 107.608 26.194 107.8 25.89 107.928C25.594 108.056 25.286 108.12 24.966 108.12ZM26.442 105C26.442 104.584 26.39 104.224 26.286 103.92C26.182 103.608 26.046 103.352 25.878 103.152C25.71 102.944 25.51 102.792 25.278 102.696C25.054 102.592 24.818 102.54 24.57 102.54C24.042 102.54 23.602 102.748 23.25 103.164C22.906 103.58 22.734 104.192 22.734 105C22.734 105.808 22.91 106.424 23.262 106.848C23.614 107.272 24.066 107.484 24.618 107.484C25.106 107.484 25.53 107.28 25.89 106.872C26.258 106.456 26.442 105.832 26.442 105ZM30.5005 109.584L31.0645 108.06L28.4125 102H29.4565L31.4965 106.86L33.2245 102H34.1845L31.1725 110.208C31.0685 110.488 30.9445 110.688 30.8005 110.808C30.6565 110.936 30.4205 111 30.0925 111H29.0605V110.22H29.8165C30.0165 110.22 30.1605 110.168 30.2485 110.064C30.3365 109.968 30.4205 109.808 30.5005 109.584ZM37.8497 107.496C38.3297 107.496 38.6977 107.392 38.9537 107.184C39.2177 106.968 39.3497 106.668 39.3497 106.284C39.3497 105.932 39.2297 105.66 38.9897 105.468C38.7497 105.276 38.4017 105.18 37.9457 105.18H37.1057V104.64H37.9457C38.3057 104.64 38.5897 104.544 38.7977 104.352C39.0137 104.152 39.1217 103.892 39.1217 103.572C39.1217 103.236 39.0097 102.976 38.7857 102.792C38.5697 102.6 38.2577 102.504 37.8497 102.504C37.3537 102.504 36.9617 102.644 36.6737 102.924C36.3857 103.196 36.1897 103.572 36.0857 104.052L35.2577 103.716C35.4097 103.164 35.7137 102.72 36.1697 102.384C36.6257 102.048 37.2017 101.88 37.8977 101.88C38.6017 101.88 39.1337 102.028 39.4937 102.324C39.8537 102.612 40.0337 102.996 40.0337 103.476C40.0337 103.788 39.9457 104.068 39.7697 104.316C39.5937 104.556 39.3257 104.74 38.9657 104.868C39.4377 104.996 39.7697 105.188 39.9617 105.444C40.1617 105.7 40.2617 105.984 40.2617 106.296C40.2617 106.856 40.0497 107.3 39.6257 107.628C39.2017 107.956 38.6057 108.12 37.8377 108.12C37.1737 108.12 36.6097 107.968 36.1457 107.664C35.6897 107.352 35.3857 106.888 35.2337 106.272L36.0497 105.924C36.1537 106.508 36.3697 106.916 36.6977 107.148C37.0257 107.38 37.4097 107.496 37.8497 107.496ZM42.9626 108H42.0506V102H42.9626V106.836L46.2146 102H47.1266V108H46.2146V103.164L42.9626 108ZM51.7667 108H50.8547V102.648H48.6707V102H53.9507V102.648H51.7667V108ZM60.0176 106.008C60.0176 106.576 59.8376 107.052 59.4776 107.436C59.1176 107.812 58.5016 108 57.6296 108H55.4936V102H56.4056V104.208H57.7496C58.0536 104.208 58.3416 104.244 58.6136 104.316C58.8936 104.388 59.1376 104.5 59.3456 104.652C59.5536 104.796 59.7176 104.984 59.8376 105.216C59.9576 105.44 60.0176 105.704 60.0176 106.008ZM59.1056 106.008C59.1056 105.656 58.9816 105.376 58.7336 105.168C58.4936 104.96 58.0976 104.856 57.5456 104.856H56.4056V107.352H57.5216C58.0816 107.352 58.4856 107.244 58.7336 107.028C58.9816 106.804 59.1056 106.464 59.1056 106.008ZM67.5052 107.496V102.504C66.8492 102.528 66.3092 102.748 65.8852 103.164C65.4612 103.572 65.2492 104.184 65.2492 105C65.2492 105.768 65.4612 106.368 65.8852 106.8C66.3092 107.232 66.8492 107.464 67.5052 107.496ZM68.4172 102.504V107.496C69.0812 107.472 69.6212 107.256 70.0372 106.848C70.4612 106.432 70.6732 105.816 70.6732 105C70.6732 104.232 70.4612 103.632 70.0372 103.2C69.6212 102.768 69.0812 102.536 68.4172 102.504ZM68.4172 111H67.5052V108.12C67.0572 108.112 66.6332 108.032 66.2332 107.88C65.8332 107.72 65.4852 107.508 65.1892 107.244C64.8932 106.972 64.6572 106.648 64.4812 106.272C64.3132 105.888 64.2292 105.464 64.2292 105C64.2292 104.536 64.3132 104.116 64.4812 103.74C64.6572 103.356 64.8932 103.032 65.1892 102.768C65.4852 102.496 65.8332 102.284 66.2332 102.132C66.6332 101.972 67.0572 101.888 67.5052 101.88V99H68.4172V101.88C68.8652 101.888 69.2892 101.972 69.6892 102.132C70.0892 102.284 70.4372 102.496 70.7332 102.768C71.0292 103.032 71.2612 103.356 71.4292 103.74C71.6052 104.116 71.6932 104.536 71.6932 105C71.6932 105.464 71.6052 105.888 71.4292 106.272C71.2612 106.648 71.0292 106.972 70.7332 107.244C70.4372 107.508 70.0892 107.72 69.6892 107.88C69.2892 108.032 68.8652 108.112 68.4172 108.12V111ZM76.0648 101.88C76.4728 101.88 76.8528 101.956 77.2048 102.108C77.5648 102.26 77.8768 102.476 78.1408 102.756C78.4128 103.028 78.6248 103.356 78.7768 103.74C78.9288 104.124 79.0048 104.544 79.0048 105C79.0048 105.456 78.9288 105.876 78.7768 106.26C78.6248 106.644 78.4168 106.976 78.1528 107.256C77.8888 107.528 77.5768 107.74 77.2168 107.892C76.8568 108.044 76.4728 108.12 76.0648 108.12C75.6568 108.12 75.2728 108.044 74.9128 107.892C74.5528 107.74 74.2408 107.528 73.9768 107.256C73.7128 106.976 73.5008 106.644 73.3408 106.26C73.1888 105.876 73.1128 105.456 73.1128 105C73.1128 104.544 73.1888 104.124 73.3408 103.74C73.5008 103.356 73.7128 103.028 73.9768 102.756C74.2408 102.476 74.5528 102.26 74.9128 102.108C75.2728 101.956 75.6568 101.88 76.0648 101.88ZM76.0768 102.504C75.5088 102.504 75.0408 102.72 74.6728 103.152C74.3128 103.576 74.1328 104.192 74.1328 105C74.1328 105.752 74.3128 106.356 74.6728 106.812C75.0408 107.268 75.5088 107.496 76.0768 107.496C76.6528 107.496 77.1128 107.268 77.4568 106.812C77.8088 106.356 77.9848 105.752 77.9848 105C77.9848 104.192 77.8088 103.576 77.4568 103.152C77.1128 102.72 76.6528 102.504 76.0768 102.504ZM83.1066 108H82.1946V102.648H80.0106V102H85.2906V102.648H83.1066V108ZM89.2031 101.88C89.6111 101.88 89.9911 101.956 90.3431 102.108C90.7031 102.26 91.0151 102.476 91.2791 102.756C91.5511 103.028 91.7631 103.356 91.9151 103.74C92.0671 104.124 92.1431 104.544 92.1431 105C92.1431 105.456 92.0671 105.876 91.9151 106.26C91.7631 106.644 91.5551 106.976 91.2911 107.256C91.0271 107.528 90.7151 107.74 90.3551 107.892C89.9951 108.044 89.6111 108.12 89.2031 108.12C88.7951 108.12 88.4111 108.044 88.0511 107.892C87.6911 107.74 87.3791 107.528 87.1151 107.256C86.8511 106.976 86.6391 106.644 86.4791 106.26C86.3271 105.876 86.2511 105.456 86.2511 105C86.2511 104.544 86.3271 104.124 86.4791 103.74C86.6391 103.356 86.8511 103.028 87.1151 102.756C87.3791 102.476 87.6911 102.26 88.0511 102.108C88.4111 101.956 88.7951 101.88 89.2031 101.88ZM89.2151 102.504C88.6471 102.504 88.1791 102.72 87.8111 103.152C87.4511 103.576 87.2711 104.192 87.2711 105C87.2711 105.752 87.4511 106.356 87.8111 106.812C88.1791 107.268 88.6471 107.496 89.2151 107.496C89.7911 107.496 90.2511 107.268 90.5951 106.812C90.9471 106.356 91.1231 105.752 91.1231 105C91.1231 104.192 90.9471 103.576 90.5951 103.152C90.2511 102.72 89.7911 102.504 89.2151 102.504Z" fill="#A7A6A6"/>
</svg>
